<svg width="40" height="40" viewBox="0 0 40 40" fill="none" xmlns="http://www.w3.org/2000/svg">
<g clip-path="url(#clip0)">
<path d="M2.49759 2.71908C-0.642839 5.98106 -0.000101425 9.44619 -0.000101425 19.9731C-0.000101425 28.715 -1.52536 37.4785 6.45725 39.5416C8.94994 40.1827 31.0361 40.1827 33.5255 39.5383C36.8491 38.6808 39.5533 35.9849 39.9229 31.2843C39.9745 30.6282 39.9745 9.32963 39.9213 8.66025C39.5283 3.65322 36.4461 0.767559 32.3849 0.1831C31.4541 0.0482254 31.2676 0.00826237 26.492 -6.32554e-05C9.55272 0.00826237 5.83949 -0.746039 2.49759 2.71908Z" fill="url(#paint0_linear)"/>
<path d="M19.9967 5.23154C13.945 5.23154 8.19835 4.69321 6.00335 10.3265C5.09668 12.6532 5.22835 15.6749 5.22835 20.0015C5.22835 23.7982 5.10668 27.3665 6.00335 29.6749C8.19335 35.3115 13.9867 34.7715 19.9933 34.7715C25.7883 34.7715 31.7633 35.3749 33.985 29.6749C34.8933 27.3249 34.76 24.3482 34.76 20.0015C34.76 14.2315 35.0783 10.5065 32.28 7.70987C29.4467 4.87654 25.615 5.23154 19.99 5.23154H19.9967ZM18.6733 7.89321C31.2967 7.87321 32.9033 6.46987 32.0167 25.9649C31.7017 32.8599 26.4517 32.1032 19.9983 32.1032C8.23168 32.1032 7.89335 31.7665 7.89335 19.9949C7.89335 8.08654 8.82668 7.89987 18.6733 7.88987V7.89321ZM27.88 10.3449C26.9017 10.3449 26.1083 11.1382 26.1083 12.1165C26.1083 13.0949 26.9017 13.8882 27.88 13.8882C28.8583 13.8882 29.6517 13.0949 29.6517 12.1165C29.6517 11.1382 28.8583 10.3449 27.88 10.3449ZM19.9967 12.4165C15.8083 12.4165 12.4133 15.8132 12.4133 20.0015C12.4133 24.1899 15.8083 27.5849 19.9967 27.5849C24.185 27.5849 27.5783 24.1899 27.5783 20.0015C27.5783 15.8132 24.185 12.4165 19.9967 12.4165ZM19.9967 15.0782C26.505 15.0782 26.5133 24.9249 19.9967 24.9249C13.49 24.9249 13.48 15.0782 19.9967 15.0782Z" fill="white"/>
</g>
<defs>
<linearGradient id="paint0_linear" x1="2.57421" y1="37.4104" x2="39.7156" y2="5.26501" gradientUnits="userSpaceOnUse">
<stop stop-color="#FFDD55"/>
<stop offset="0.5" stop-color="#FF543E"/>
<stop offset="1" stop-color="#C837AB"/>
</linearGradient>
<clipPath id="clip0">
<rect width="40" height="40" fill="white"/>
</clipPath>
</defs>
</svg>
