<svg width="100" height="100" viewBox="0 0 100 100" fill="none" xmlns="http://www.w3.org/2000/svg">
<path d="M70.9677 87.0968H96.7742V91.9355C96.7742 94.6032 94.6032 96.7742 91.9355 96.7742H8.06452C5.39677 96.7742 3.22581 94.6032 3.22581 91.9355V87.0968H29.0323V83.871H0V91.9355C0 96.3823 3.61774 100 8.06452 100H91.9355C96.3823 100 100 96.3823 100 91.9355V83.871H70.9677V87.0968Z" fill="#FAC300"/>
<path d="M37.0968 93.5484H62.9032C65.571 93.5484 67.7419 91.3774 67.7419 88.7097V83.871H32.2581V88.7097C32.2581 91.3774 34.429 93.5484 37.0968 93.5484ZM35.4839 87.0968H64.5161V88.7097C64.5161 89.5984 63.7935 90.3226 62.9032 90.3226H37.0968C36.2064 90.3226 35.4839 89.5984 35.4839 88.7097V87.0968Z" fill="#FAC300"/>
<path d="M12.9033 90.3226H9.67749V93.5484H12.9033V90.3226Z" fill="#FAC300"/>
<path d="M19.3547 90.3226H16.1289V93.5484H19.3547V90.3226Z" fill="#FAC300"/>
<path d="M25.8064 90.3226H22.5806V93.5484H25.8064V90.3226Z" fill="#FAC300"/>
<path d="M91.9355 14.5161H67.7419V17.7419H91.9355C94.6032 17.7419 96.7742 19.9129 96.7742 22.5806V80.6451H100V22.5806C100 18.1339 96.3823 14.5161 91.9355 14.5161Z" fill="#FAC300"/>
<path d="M3.22581 22.5806C3.22581 19.9129 5.39677 17.7419 8.06452 17.7419H29.0323V14.5161H8.06452C3.61774 14.5161 0 18.1339 0 22.5806V80.6451H3.22581V22.5806Z" fill="#FAC300"/>
<path d="M90.3226 80.6452H93.5484V24.1936C93.5484 22.4145 92.1016 20.9678 90.3226 20.9678H67.7419V24.1936H90.3226V80.6452Z" fill="#FAC300"/>
<path d="M29.0323 20.9678H9.67747C7.89843 20.9678 6.45166 22.4145 6.45166 24.1936V80.6452H9.67747V24.1936H29.0323V20.9678Z" fill="#FAC300"/>
<path d="M19.3644 74.0226L19.3547 77.4193H80.6451V74.1935L75.6418 27.4194H64.516V16.129C64.516 7.23548 57.2805 0 48.387 0C39.4934 0 32.258 7.23548 32.258 16.129V27.4194H24.358L19.3644 74.0226ZM77.4096 74.1935H69.3644L73.387 36.6435L77.4096 74.1935ZM62.9031 37.0968C63.7934 37.0968 64.516 37.821 64.516 38.7097C64.516 39.5984 63.7934 40.3226 62.9031 40.3226C62.0128 40.3226 61.2902 39.5984 61.2902 38.7097C61.2902 37.821 62.0128 37.0968 62.9031 37.0968ZM35.4838 16.129C35.4838 9.01452 41.2725 3.22581 48.387 3.22581C55.5015 3.22581 61.2902 9.01452 61.2902 16.129V27.4194H35.4838V16.129ZM33.8709 37.0968C34.7612 37.0968 35.4838 37.821 35.4838 38.7097C35.4838 39.5984 34.7612 40.3226 33.8709 40.3226C32.9805 40.3226 32.258 39.5984 32.258 38.7097C32.258 37.821 32.9805 37.0968 33.8709 37.0968ZM32.258 30.6452V34.1677C30.3854 34.8355 29.0322 36.6097 29.0322 38.7097C29.0322 41.3774 31.2031 43.5484 33.8709 43.5484C36.5386 43.5484 38.7096 41.3774 38.7096 38.7097C38.7096 36.6097 37.3563 34.8355 35.4838 34.1677V30.6452H61.2902V34.1677C59.4176 34.8355 58.0644 36.6097 58.0644 38.7097C58.0644 41.3774 60.2354 43.5484 62.9031 43.5484C65.5709 43.5484 67.7418 41.3774 67.7418 38.7097C67.7418 36.6097 66.3886 34.8355 64.516 34.1677V30.6452H70.7854L66.1386 74.0226L66.137 74.1935H22.5902L27.2563 30.6452H32.258Z" fill="#FAC300"/>
</svg>
