<svg width="96" height="96" viewBox="0 0 96 96" fill="none" xmlns="http://www.w3.org/2000/svg">
<path d="M91.2432 95.2972H4.75669C3.68149 95.2972 2.65032 94.8701 1.89004 94.1098C1.12976 93.3495 0.702637 92.3184 0.702637 91.2432V4.75669C0.702637 3.68149 1.12976 2.65032 1.89004 1.89004C2.65032 1.12976 3.68149 0.702637 4.75669 0.702637H91.2432C92.3184 0.702637 93.3495 1.12976 94.1098 1.89004C94.8701 2.65032 95.2972 3.68149 95.2972 4.75669V91.2432C95.2972 92.3184 94.8701 93.3495 94.1098 94.1098C93.3495 94.8701 92.3184 95.2972 91.2432 95.2972ZM4.75669 3.40534C4.39829 3.40534 4.05457 3.54771 3.80114 3.80114C3.54771 4.05457 3.40534 4.39829 3.40534 4.75669V91.2432C3.40534 91.6016 3.54771 91.9453 3.80114 92.1987C4.05457 92.4522 4.39829 92.5945 4.75669 92.5945H91.2432C91.6016 92.5945 91.9453 92.4522 92.1987 92.1987C92.4522 91.9453 92.5945 91.6016 92.5945 91.2432V4.75669C92.5945 4.39829 92.4522 4.05457 92.1987 3.80114C91.9453 3.54771 91.6016 3.40534 91.2432 3.40534H4.75669Z" fill="#FAC300"/>
<path d="M2.05396 22.3242H93.9458V25.0269H2.05396V22.3242Z" fill="#FAC300"/>
<path d="M83.135 18.2702C82.0659 18.2702 81.0208 17.9531 80.1319 17.3592C79.243 16.7652 78.5502 15.921 78.1411 14.9333C77.732 13.9456 77.6249 12.8588 77.8335 11.8102C78.042 10.7617 78.5569 9.79852 79.3128 9.04256C80.0688 8.2866 81.0319 7.77179 82.0805 7.56322C83.129 7.35465 84.2159 7.46169 85.2036 7.87081C86.1913 8.27994 87.0355 8.97276 87.6294 9.86168C88.2234 10.7506 88.5404 11.7957 88.5404 12.8648C88.5404 14.2984 87.9709 15.6732 86.9572 16.687C85.9435 17.7007 84.5686 18.2702 83.135 18.2702ZM83.135 10.1621C82.6005 10.1621 82.0779 10.3206 81.6335 10.6175C81.189 10.9145 80.8426 11.3366 80.638 11.8305C80.4335 12.3243 80.38 12.8678 80.4842 13.392C80.5885 13.9163 80.8459 14.3979 81.2239 14.7759C81.6019 15.1538 82.0835 15.4112 82.6077 15.5155C83.132 15.6198 83.6754 15.5663 84.1693 15.3617C84.6631 15.1572 85.0853 14.8108 85.3822 14.3663C85.6792 13.9218 85.8377 13.3993 85.8377 12.8648C85.8377 12.148 85.553 11.4605 85.0461 10.9537C84.5393 10.4468 83.8518 10.1621 83.135 10.1621Z" fill="#FAC300"/>
<path d="M68.2703 18.2702C67.2012 18.2702 66.1561 17.9531 65.2672 17.3592C64.3783 16.7652 63.6855 15.921 63.2763 14.9333C62.8672 13.9456 62.7602 12.8588 62.9687 11.8102C63.1773 10.7617 63.6921 9.79852 64.4481 9.04256C65.204 8.2866 66.1672 7.77179 67.2157 7.56322C68.2643 7.35465 69.3511 7.46169 70.3388 7.87081C71.3265 8.27994 72.1707 8.97276 72.7647 9.86168C73.3586 10.7506 73.6757 11.7957 73.6757 12.8648C73.6757 14.2984 73.1062 15.6732 72.0925 16.687C71.0788 17.7007 69.7039 18.2702 68.2703 18.2702ZM68.2703 10.1621C67.7357 10.1621 67.2132 10.3206 66.7687 10.6175C66.3243 10.9145 65.9779 11.3366 65.7733 11.8305C65.5687 12.3243 65.5152 12.8678 65.6195 13.392C65.7238 13.9163 65.9812 14.3979 66.3592 14.7759C66.7371 15.1538 67.2187 15.4112 67.743 15.5155C68.2673 15.6198 68.8107 15.5663 69.3045 15.3617C69.7984 15.1572 70.2205 14.8108 70.5175 14.3663C70.8145 13.9218 70.973 13.3993 70.973 12.8648C70.973 12.148 70.6882 11.4605 70.1814 10.9537C69.6745 10.4468 68.9871 10.1621 68.2703 10.1621Z" fill="#FAC300"/>
<path d="M53.4054 18.2702C52.3363 18.2702 51.2912 17.9531 50.4023 17.3592C49.5134 16.7652 48.8206 15.921 48.4115 14.9333C48.0023 13.9456 47.8953 12.8588 48.1039 11.8102C48.3124 10.7617 48.8273 9.79852 49.5832 9.04256C50.3392 8.2866 51.3023 7.77179 52.3509 7.56322C53.3994 7.35465 54.4863 7.46169 55.474 7.87081C56.4617 8.27994 57.3059 8.97276 57.8999 9.86168C58.4938 10.7506 58.8108 11.7957 58.8108 12.8648C58.8108 14.2984 58.2413 15.6732 57.2276 16.687C56.2139 17.7007 54.839 18.2702 53.4054 18.2702ZM53.4054 10.1621C52.8709 10.1621 52.3483 10.3206 51.9039 10.6175C51.4594 10.9145 51.113 11.3366 50.9084 11.8305C50.7039 12.3243 50.6504 12.8678 50.7546 13.392C50.8589 13.9163 51.1163 14.3979 51.4943 14.7759C51.8723 15.1538 52.3539 15.4112 52.8781 15.5155C53.4024 15.6198 53.9458 15.5663 54.4397 15.3617C54.9336 15.1572 55.3557 14.8108 55.6526 14.3663C55.9496 13.9218 56.1081 13.3993 56.1081 12.8648C56.1081 12.148 55.8234 11.4605 55.3165 10.9537C54.8097 10.4468 54.1222 10.1621 53.4054 10.1621Z" fill="#FAC300"/>
<path d="M39.8918 60.1621H11.5135C11.1551 60.1621 10.8113 60.0197 10.5579 59.7663C10.3045 59.5128 10.1621 59.1691 10.1621 58.8107V33.135C10.1621 32.7766 10.3045 32.4329 10.5579 32.1795C10.8113 31.9261 11.1551 31.7837 11.5135 31.7837H39.8918C40.2502 31.7837 40.594 31.9261 40.8474 32.1795C41.1008 32.4329 41.2432 32.7766 41.2432 33.135V58.8107C41.2432 59.1691 41.1008 59.5128 40.8474 59.7663C40.594 60.0197 40.2502 60.1621 39.8918 60.1621ZM12.8648 57.4594H38.5405V34.4864H12.8648V57.4594Z" fill="#FAC300"/>
<path d="M48 33.135H85.8378V35.8377H48V33.135Z" fill="#FAC300"/>
<path d="M48 45.2972H85.8378V48H48V45.2972Z" fill="#FAC300"/>
<path d="M48 57.4594H85.8378V60.1621H48V57.4594Z" fill="#FAC300"/>
<path d="M10.1621 69.6216H85.8378V72.3243H10.1621V69.6216Z" fill="#FAC300"/>
<path d="M10.1621 81.7837H85.8378V84.4864H10.1621V81.7837Z" fill="#FAC300"/>
</svg>
