<svg width="100" height="100" viewBox="0 0 100 100" fill="none" xmlns="http://www.w3.org/2000/svg">
<path d="M58.3334 5H41.6668C40.7469 5 40.0002 5.74668 40.0002 6.6666C40.0002 7.58652 40.7469 8.3332 41.6668 8.3332H58.3334C59.2534 8.3332 60 7.58652 60 6.6666C60 5.74668 59.2534 5 58.3334 5Z" fill="#FAC300"/>
<path d="M69.9999 5H68.3333C67.4134 5 66.6667 5.74668 66.6667 6.6666C66.6667 7.58652 67.4134 8.3332 68.3333 8.3332H69.9999C70.9199 8.3332 71.6665 7.58652 71.6665 6.6666C71.6665 5.74668 70.9199 5 69.9999 5Z" fill="#FAC300"/>
<path d="M52.07 85H47.9317C45.3968 85 43.3335 87.0633 43.3335 89.5982V90.4033C43.3335 92.9383 45.3968 95 47.9302 95H52.0685C54.6034 95 56.6667 92.9383 56.6667 90.4033V89.5982C56.6667 87.0633 54.6034 85 52.07 85ZM53.3335 90.4033C53.3335 91.1 52.7669 91.6666 52.0702 91.6666H47.9317C47.2335 91.6666 46.6667 91.1 46.6667 90.4033V89.5982C46.6667 88.9 47.2333 88.3332 47.9317 88.3332H52.0685C52.7669 88.3332 53.3335 88.8998 53.3335 89.5982V90.4033Z" fill="#FAC300"/>
<path d="M72.3098 0H27.6915C24.3698 0 21.6665 2.70332 21.6665 6.025V93.975C21.6665 97.2967 24.3698 100 27.6915 100H72.3081C75.6298 100 78.3331 97.2967 78.3331 93.9768V6.025C78.3333 2.70332 75.63 0 72.3098 0ZM74.9999 93.975C74.9999 95.4584 73.7932 96.6666 72.3098 96.6666H27.6915C26.2065 96.6666 24.9999 95.4582 24.9999 93.9766V6.025C24.9999 4.5416 26.2065 3.3334 27.6915 3.3334H72.3081C73.793 3.3334 74.9997 4.5418 74.9997 6.025V93.975H74.9999Z" fill="#FAC300"/>
<path d="M76.6666 10H23.3334C22.4134 10 21.6667 10.7467 21.6667 11.6666V81.6666C21.6667 82.5865 22.4134 83.3332 23.3334 83.3332H76.6668C77.5867 83.3332 78.3334 82.5865 78.3334 81.6666V11.6666C78.3334 10.7467 77.5867 10 76.6666 10ZM75 80H25V13.3334H75V80Z" fill="#FAC300"/>
</svg>
